<svg xmlns="http://www.w3.org/2000/svg" xmlns:xlink="http://www.w3.org/1999/xlink" width="84" height="78" viewBox="0 0 84 78" fill="none">
<g filter="url(#filter_37_523)">
<path     fill="#FFFFFF" fill-opacity="0.85" d="M7.3 66C5.47746 66 4 64.5225 4 62.7L4 62.7C4 60.8775 5.47746 59.4 7.3 59.4L13.4791 59.4C13.7171 59.4 13.91 59.2071 13.91 58.9691L13.91 49.505C13.91 47.6797 15.3897 46.2 17.215 46.2L17.215 46.2C19.0403 46.2 20.52 47.6797 20.52 49.505L20.52 58.6235C20.52 59.0524 20.8676 59.4 21.2965 59.4L29.43 59.4C29.9823 59.4 30.43 58.9523 30.43 58.4L30.43 39.605C30.43 37.7797 31.9097 36.3 33.735 36.3L33.735 36.3C35.5603 36.3 37.04 37.7797 37.04 39.605L37.04 58.4C37.04 58.9523 37.4877 59.4 38.04 59.4L45.9894 59.4C46.5254 59.4 46.96 58.9655 46.96 58.4294L46.96 46.205C46.96 44.3797 48.4397 42.9 50.265 42.9L50.265 42.9C52.0903 42.9 53.57 44.3797 53.57 46.205L53.57 58.4294C53.57 58.9655 54.0045 59.4 54.5406 59.4L62.48 59.4C63.0323 59.4 63.48 58.9523 63.48 58.4L63.48 36.305C63.48 34.4797 64.9597 33 66.785 33L66.785 33C68.6103 33 70.09 34.4797 70.09 36.305L70.09 58.9495C70.09 59.1983 70.2917 59.4 70.5404 59.4L76.7 59.4C78.5225 59.4 80 60.8775 80 62.7L80 62.7C80 64.5225 78.5225 66 76.7 66L46.96 66L7.3 66ZM73.39 3L73.39 22.58C73.39 24.3031 71.9931 25.7 70.27 25.7L70.27 25.7C68.5469 25.7 67.15 24.3031 67.15 22.58L67.15 10.98L47.9305 28.4537C45.1408 30.99 40.8436 30.8612 38.2108 28.1623L30.085 19.8324C29.7006 19.4384 29.0701 19.4291 28.6743 19.8116L14.0683 33.9247C12.7159 35.2315 10.5561 35.1802 9.26718 33.8107L9.26718 33.8107C7.99606 32.4602 8.05345 30.3368 9.39567 29.0569L24.4366 14.714C27.1861 12.0921 31.5251 12.1421 34.2136 14.8266L42.6492 23.2501C43.0253 23.6257 43.6296 23.6414 44.0247 23.2859L62.79 6.4L51.45 6.4C49.6827 6.4 48.25 4.96731 48.25 3.2L48.25 3.2C48.25 1.43269 49.6827 -2.90331e-15 51.45 -2.68687e-15L70.39 0C72.0468 0 73.39 1.34315 73.39 3Z">
</path>
</g>
<defs>
<filter id="filter_37_523" x="0" y="0" width="84" height="78" filterUnits="userSpaceOnUse" color-interpolation-filters="sRGB">
<feFlood flood-opacity="0" result="feFloodId_37_523"/>
<feColorMatrix in="SourceAlpha" type="matrix" values="0 0 0 0 0 0 0 0 0 0 0 0 0 0 0 0 0 0 127 0" result="hardAlpha_37_523"/>
<feOffset dx="0" dy="8"/>
<feGaussianBlur stdDeviation="2"/>
<feComposite in2="hardAlpha_37_523" operator="out"/>
<feColorMatrix type="matrix" values="0 0 0 0 0.12156862745098039 0 0 0 0 0.25882352941176473 0 0 0 0 0.20784313725490197 0 0 0 0.16 0"/>
<feBlend mode="normal" in2="feFloodId_37_523" result="dropShadow_1_37_523"/>
<feBlend mode="normal" in="SourceGraphic" in2="dropShadow_1_37_523" result="shape_37_523"/>
</filter>
</defs>
</svg>
