<svg xmlns="http://www.w3.org/2000/svg" xmlns:xlink="http://www.w3.org/1999/xlink" width="121.99993896484375" height="122" viewBox="0 0 121.99993896484375 122" fill="none">
<path d="M61 122C94.6893 122 122 94.6894 122 61C122 27.3106 94.6893 0 61 0C27.3106 0 0 27.3106 0 61C0 94.6894 27.3106 122 61 122ZM92.39 44.58L92.39 25C92.39 23.3431 91.0468 22 89.39 22L70.45 22C68.6827 22 67.25 23.4327 67.25 25.2C67.25 26.9673 68.6827 28.4 70.45 28.4L81.79 28.4L63.0247 45.2859C62.6296 45.6414 62.0253 45.6257 61.6492 45.2501L53.2136 36.8266C50.5251 34.1421 46.1861 34.0921 43.4366 36.714L28.3957 51.0569C27.0534 52.3368 26.9961 54.4602 28.2672 55.8107C29.5561 57.1802 31.7159 57.2315 33.0683 55.9247L47.6743 41.8116C48.0701 41.4291 48.7006 41.4384 49.085 41.8324L57.2108 50.1623C59.8436 52.8612 64.1408 52.99 66.9305 50.4537L86.15 32.98L86.15 44.58C86.15 46.3031 87.5469 47.7 89.27 47.7C90.9931 47.7 92.39 46.3031 92.39 44.58ZM23 84.7C23 86.5225 24.4775 88 26.3 88L95.7 88C97.5225 88 99 86.5225 99 84.7C99 82.8775 97.5225 81.4 95.7 81.4L89.5404 81.4C89.2917 81.4 89.09 81.1983 89.09 80.9495L89.09 58.305C89.09 56.4797 87.6103 55 85.785 55C83.9597 55 82.48 56.4797 82.48 58.305L82.48 80.4C82.48 80.9523 82.0323 81.4 81.48 81.4L73.5406 81.4C73.0045 81.4 72.57 80.9655 72.57 80.4294L72.57 68.205C72.57 66.3797 71.0903 64.9 69.265 64.9C67.4397 64.9 65.96 66.3797 65.96 68.205L65.96 80.4294C65.96 80.9655 65.5254 81.4 64.9894 81.4L57.04 81.4C56.4877 81.4 56.04 80.9523 56.04 80.4L56.04 61.605C56.04 59.7797 54.5603 58.3 52.735 58.3C50.9097 58.3 49.43 59.7797 49.43 61.605L49.43 80.4C49.43 80.9523 48.9823 81.4 48.43 81.4L40.2965 81.4C39.8676 81.4 39.52 81.0524 39.52 80.6235L39.52 71.505C39.52 69.6797 38.0403 68.2 36.215 68.2C34.3897 68.2 32.91 69.6797 32.91 71.505L32.91 80.9691C32.91 81.2071 32.7171 81.4 32.4791 81.4L26.3 81.4C24.4775 81.4 23 82.8775 23 84.7Z" fill-rule="evenodd"  fill="#FFFFFF" fill-opacity="0.35">
</path>
</svg>
