<svg xmlns="http://www.w3.org/2000/svg" xmlns:xlink="http://www.w3.org/1999/xlink" width="160" height="160" viewBox="0 0 160 160" fill="none">
<path d="M80 160C124.183 160 160 124.183 160 80C160 35.8172 124.183 0 80 0C35.8172 0 0 35.8172 0 80C0 124.183 35.8172 160 80 160ZM99.1352 26L60.1051 26C51.2685 26 44.1051 33.1634 44.1051 42L44.1051 43.7438L51.7841 48.4765L51.7841 43.6795C51.7841 38.1567 56.2612 33.6795 61.7841 33.6795L97.4563 33.6795C102.979 33.6795 107.456 38.1567 107.456 43.6795L107.456 48.8837L115.135 44.151L115.135 42C115.135 33.1634 107.972 26 99.1352 26ZM81.87 50.5511C81.87 49.5082 81.0246 48.6628 79.9818 48.6628C78.9389 48.6628 78.0935 49.5082 78.0935 50.5511L78.0935 98.3942C78.0935 99.4371 78.9389 100.283 79.9818 100.283C81.0246 100.283 81.87 99.4371 81.87 98.3942L81.87 50.5511ZM29 57.3361C29 51.5419 35.3573 47.995 40.2879 51.0383L68.1353 68.2261C72.8202 71.1178 72.8202 77.9302 68.1353 80.8218L40.2879 98.0096C35.3573 101.053 29 97.506 29 91.7118L29 57.3361ZM131 57.3361C131 51.5419 124.643 47.995 119.712 51.0383L91.8647 68.2261C87.1798 71.1178 87.1798 77.9302 91.8647 80.8218L119.712 98.0096C124.643 101.053 131 97.506 131 91.7118L131 57.3361ZM35.1529 58.8061C35.1529 57.6772 36.3888 56.9837 37.3523 57.572L63.2811 73.4022C64.2045 73.9659 64.2045 75.3068 63.2811 75.8705L37.3523 91.7007C36.3888 92.289 35.1529 91.5955 35.1529 90.4666L35.1529 58.8061ZM124.847 58.8061C124.847 57.6772 123.611 56.9837 122.648 57.572L96.7191 73.4022C95.7957 73.9659 95.7957 75.3068 96.7191 75.8705L122.648 91.7007C123.611 92.289 124.847 91.5955 124.847 90.4666L124.847 58.8061ZM44.1051 106L44.1051 105.377L51.7841 100.644L51.7841 104.319C51.7841 109.842 56.2612 114.319 61.7841 114.319L97.4563 114.319C102.979 114.319 107.456 109.842 107.456 104.319L107.456 100.237L115.135 104.97L115.135 106C115.135 114.836 107.972 122 99.1352 122L60.1051 122C51.2685 122 44.1051 114.836 44.1051 106Z" fill-rule="evenodd"  fill="#FFFFFF" fill-opacity="0.85">
</path>
</svg>
